<?xml version="1.0" standalone="no"?>
<!DOCTYPE svg PUBLIC "-//W3C//DTD SVG 20010904//EN"
 "http://www.w3.org/TR/2001/REC-SVG-20010904/DTD/svg10.dtd">
<svg version="1.0" xmlns="http://www.w3.org/2000/svg"
 width="1024.000000pt" height="1024.000000pt" viewBox="0 0 1024.000000 1024.000000"
 preserveAspectRatio="xMidYMid meet">
<metadata>
Created by potrace 1.16, written by Peter Selinger 2001-2019
</metadata>
<g transform="translate(0.000000,1024.000000) scale(0.100000,-0.100000)"
fill="#000000" stroke="none">
<path d="M0 5375 c0 -4722 1 -4865 18 -4865 11 0 27 -9 36 -19 15 -16 16 -31
10 -104 l-7 -86 -28 6 -29 6 0 -157 0 -156 5120 0 5120 0 0 5120 0 5120 -5120
0 -5120 0 0 -4865z m4296 2210 c24 -37 1 -94 -46 -117 -429 -204 -512 -260
-761 -508 -237 -236 -371 -414 -495 -661 -70 -140 -88 -188 -130 -340 -55
-205 -75 -315 -83 -472 -31 -584 138 -1097 516 -1567 93 -116 245 -266 253
-249 5 14 286 305 510 529 203 204 637 647 915 935 149 154 392 404 541 555
378 383 468 475 612 630 70 74 166 175 213 225 109 115 141 154 133 166 -3 5
-2 9 3 8 4 -1 21 3 38 10 38 16 138 5 166 -17 24 -20 42 -92 32 -130 -4 -18
-203 -224 -579 -602 -315 -316 -587 -591 -605 -610 -18 -19 -373 -379 -789
-800 -851 -860 -1025 -1038 -1025 -1050 0 -28 401 -270 446 -270 15 0 89 72
529 520 111 113 364 369 563 571 199 201 475 480 614 622 263 267 285 284 357
275 22 -2 34 -12 47 -38 17 -33 19 -88 23 -859 l5 -824 -33 -33 c-45 -45 -108
-48 -156 -8 -62 53 -60 25 -60 687 0 332 -3 607 -7 610 -3 4 -96 -82 -206
-191 -1223 -1207 -1423 -1410 -1414 -1435 2 -6 37 -19 78 -29 56 -14 81 -25
102 -48 45 -50 27 -100 -36 -100 -77 0 -452 139 -616 228 -232 124 -421 261
-565 407 -233 236 -363 416 -498 687 -60 122 -158 381 -186 493 -84 331 -83
811 2 1130 72 271 256 654 395 822 14 17 42 53 61 79 19 26 44 57 55 69 11 12
40 45 65 74 25 29 70 76 100 105 30 28 68 65 85 81 47 47 196 164 300 236 27
19 135 78 240 131 214 109 260 121 291 73z m1177 -576 c33 -25 52 -85 42 -135
-7 -42 45 14 -840 -889 -275 -280 -567 -580 -650 -665 -311 -322 -360 -370
-391 -385 -69 -32 -123 -12 -155 59 -18 39 -19 79 -19 771 0 453 4 744 10 766
14 51 48 79 107 85 46 6 51 4 79 -25 16 -17 31 -41 34 -53 7 -29 2 -1176 -5
-1205 -3 -13 -3 -23 -1 -23 2 0 82 82 177 183 95 100 322 335 504 522 181 187
407 419 500 515 94 96 228 238 299 315 71 77 143 150 160 163 40 29 113 30
149 1z m-5259 -6626 l29 -26 -6 -99 c-4 -55 -3 -98 1 -96 85 42 95 51 67 62
-16 6 -50 74 -42 83 3 2 23 -5 45 -16 65 -33 75 -100 23 -143 -38 -32 -80 -49
-106 -42 -47 12 -55 37 -55 176 0 71 3 128 8 128 4 0 20 -12 36 -27z"/>
</g>
</svg>
